<svg xmlns="http://www.w3.org/2000/svg" fill="#6a6a6a" viewBox="56 56 400 400" enable-background="new 56 56 400 400"><path d="m274.38 194.64c-.07-.119.318-1.335.656-1.221.217.07.14.178.408.2.263.021.42-.289.695-.24.43.076.727.476 1.184.488.344.009.548-.333.876-.359.241-.024.456.131.696.078.253-.059.447-.225.662-.35.422-.249.366-.031.851-.081.152-.019.282-.104.428-.131.031-.006.064-.007.097-.004.218.023.304.155.254.411-.104.563-.557.983-.63 1.557-.049.375.436.584.31.986-.307 1.01-.596 1.062-.791 1.095-.276.048-.47-.042-.586-.099-.345-.164-.585-.482-.913-.68-.174-.106-.378-.135-.562-.214-.569-.243-2.221-1.384-2.735-1.35-.182 0-.333.149-.515.133-.007 0-.016 0-.023-.002-.095-.007-.256-.033-.362-.217m-34.489-49.23c0 0 0 0 0 0-.038.05-.07.102-.097.153-.051.103-.018.229.078.293.098.064.225.046.301-.043.091-.107.208-.245.359-.425.142-.171.19-.23.4-.321.164-.071.333-.136.503-.191.064-.021.136 0 .189.031s.085.106.083.174c-.017.389.115.814-.278 1.119-.224.177-.401.315-.535.428-.132.111-.168.299-.087.45.083.152.258.226.424.179 0 0 0 0 .02.014.015.011.025.026.029.045.11.462.124.462.735.093.019-.012.042-.015.063-.009.011.003.019 0 .024.019.083.162.217.291.382.37.227.111.397.321.451.578.003.015.007.03.011.048.005.015.009.029.014.044.208.636.04 1.333-.433 1.805-.474.472-1.173.636-1.807.424 0 0 0 0-.002 0-.106-.035-.222.004-.286.096s-.058.215.013.301c.062.078.137.15.135.257-.011.395-.508.247-.662.51-.002.004-.004.005-.006.008 0 .018-.016.04-.019.063-.005.05.016.101.053.136s.09.048.141.037c.228-.05.413-.243.653-.263.454-.03.112 1.109-.038 1.276-.166.185-1.315.593-1.679.645-.233.036-.388.057-.466.141-.073.083-.12.56.202.716.491.234.949-.195 1.436-.069.461.12.879.369 1.205.714.027.03.062.049.097.062.158.063.336.06.492-.007.038-.016.076-.039.107-.067.129-.114.264-.152.403-.157.104-.004.201.062.234.162.034.101 0 .211-.087.273-.355.254-.712.513-1.208.456-.264-.03-.532-.032-.796-.004-.814.086-1.582.448-2.17 1.038-.197.197-.406.407-.593.6-.101.104-.11.266-.019.38.09.114.25.142.374.066.085-.051.18-.11.283-.173.348-.216.987-.476 1.335.194.005 0 .011.003.016.004.051.016.107.005.15-.027.47-.352.708-1.01 1.396-1.07.489-.038.853.441 1.355.336.562-.117 1.028-.549 1.638-.516.225.013.845.178.905.214.17.104.17.104 1.083.119.384.007.663.318 1.027.376.443.069.849-.194 1.283-.157.002 0 .003 0 .005 0 .004 0 .004 0 .004 0 .012 0 1.317-.249 1.292-.788 0-.011-.006-.02-.016-.026-.006-.003-.011-.007-.016 0-.459-.272-.764-.746-.826-1.274-.005-.041.02-.079.06-.09.042-.013.088-.005.125.024.026.021.055.043.078.058.142.095.228.109.281.072.313-.225.647-.437.983-.624.181-.1.288-.303.389-.697.028-.121.146-.745-.647-1.187-.005-.002-.011-.006-.016-.009-.065-.037-1.537-.794-1.953-.565-.278.147-.278.147-.788-.117-.018-.076 0-.153.07-.201.582-.449.581-.455.569-.583-.021-.28-.168-.479-.335-.664-.147-.161-.162-.4-.038-.578.003-.003.004-.006.006-.009.112-.151-.471-1.401-.478-1.41-.039-.043-.059-.065-.14-.06-.244.016-.501.023-.746.022-.03 0-.07.005-.128.015-.007 0-.014-.002-.017-.008-.014-.024-.016-.052-.009-.079.078-.307-.222-.504-.25-.785-.028-.284.049-.564.079-.845.023-.251-.006-.539-.086-.815-.295-1.012-.248-2.08.112-3.046.15-.402.358-.788.609-1.136.58-.805-2.023-.702-2.516-.67-.038.002-.075-.017-.095-.05-.019-.033-.018-.074.003-.108.126-.19.143-.439.32-.604.238-.227.561-.299.833-.466.6-.375.098-.606-.121-.663-.522-.135-1.072-.205-1.612-.206-.205 0-.41.028-.618.107-.136.05-.294.22-.454.443-.326.455-.711.86-1.15 1.209-.024.018-.048.037-.07.054-.122.093-.283.111-.419.053-.081-.034-.171-.034-.251 0-.017.007-.032.015-.048.022-.15.079-.261.195-.342.326-.101.162-.08.372.05.512s.339.176.507.086c0 .002.002.006.003.009.023.053.022.114 0 .166-.098.215-.127.45-.216.666 0 .024-.029.041-.057.046-.039.007-.079-.011-.101-.045-.11-.171-.162-.172-.239-.156-.007.002-.016.004-.023.005-.31.064-.527.79-.515.999.005.072.026.122.06.159.402.439.437 1.096.084 1.574m216.11 110.59c0 110.46-89.54 200-200 200-110.46 0-200-89.54-200-200 0-110.46 89.54-200 200-200 110.46 0 200 89.54 200 200m-140.82-86.07c0-.478.794-.467.871-1.061.035-.271-.085-.539-.311-.691-.288-.195-.416-.138-.767.021-.207.097-.443.204-.702.202-.209-.003-.385-.152-.422-.357-.033-.183.056-.365.216-.454.061-.034.083-.11.052-.171v-.002c-.022-.046-.064-.08-.114-.091-.551-.135-1.018-.216-1.403-.263-.725-.088-1.467-.031-2.169.165-.578.16-.61.252-.743.635-.353.996-.497 1.397-.628 1.571-.483.636-.828 1.352-1.021 2.127-.073.295-.223.552-.568.716 0 0-.005 0-.035 0 0 .006-.206 1.807-.189 1.999.029.409.266.801.125 1.227-.124.366-.634.284-.761.644-.002.006-.004.012-.007.017-.211.607.048 1.526.194 2.144.013.054-.013.111-.062.138-.049.026-.11.017-.149-.024-.002-.002-.004-.003-.005-.005-.26-.25-.389-.165-.452-.054-.047.082-.042.182.012.257 0 0 0 0 0 .002l.745 1.043c.748 1.049 1.757 1.86 2.941 2.361.002 0 .002 0 .003 0 .646.283 1.265-.151 1.908-.079.712.083 1.422-.041 2.135-.044.243 0 .733-.073 1.043-.205.253-.109.276-.289.299-.5.002-.017.003-.036.005-.053.014-.183.045-.208.839-.835.57-.451 1.269-.693 1.847-1.142.976-.764 2.218 0 3.274-.325.242-.074 3.55 1.171 3.765 1.277.006.003.011.004.015.007.974.407 3.586.428 4.21.604.254.069.637.156 1.01.147.023-.012.051-.022.073-.034.517-.246.845-1.056 1.565-.693 1.251.63 4.783.079 3.921-2.841-.467-1.586-2.556-2.448-3.183-2.674-1.892-.684-3.131-2.311-4.796-3.333-.734-.45-1.598-.047-2.358-.35-1.711-.681-1.711-.681-1.801-1.173-.007-.038.009-.077.035-.113.462-.648.805-1.359 1.021-2.125.002-.007.004-.014.005-.02.081-.271.182-.405-.115-.595-.39-.247-1.142 0-1.218-.65-.059-.51 1.042-1.08 1.492-1.34.379-.217.539-.505.605-.686.103-.282-.243-.662-.397-.64-.523.059-1.964.917-2.172.94-.003 0-.006 0-.009 0-.065.008-.129.029-.185.062-.005.002 0 0-.005.002l-3.293 1.904c-.004.002-.008.005-.013.008-.585.429-.908 1.13-.854 1.854.052.724.472 1.371 1.113 1.712.271.145.662.219.527.495 0 0 0 0 0 .002-.067.136-1.866 1.842-2.053 1.867-.485.056-.649-.181-.688-.252-.017-.031-.03-.062-.041-.094-.283-.813-.931-1.477-1.849-1.751-.191-.063-.318-.235-.323-.431m100.9 86.07c0-16.576-2.84-33.33-5.744-42.18-.909-2.775-3.01-4.999-5.734-6.06-2.723-1.056-5.776-.834-8.316.607-6.413 3.627-6.212 4.088-8.45 3.974-1.024-.05-5.622 3.01-7.271-.5-.312-.66-1.926-3.633-4.168.468-.606 1.111-3.92.273-5.02-.339-3.227-1.802-7.204-6.01-8.182-7.07-.003.002-.006.003-.008.004 0 0-.003.005-.005.002-1.102-1.277-4.289.469-1.946 3.957 7.852 11.705 9.231 11.808 11.453 12.974.002 0 .003 0 .004 0 1.049-.79.899-1.035 2.263-1.228.845-.119 1.574-.649 1.949-1.415.003-.007.008-.015.012-.021.429-.883 1.245-1.516 2.206-1.715.961-.198 1.961.061 2.705.702.007.007.016.013.022.02 1.358 1.17 3.111.088 4.556.776 3.666 1.721 2.268 5.223 1.541 9.37-.002.012 0 .021-.018.029-.011.007-.022 0-.034.008-.34-.068-.655.195-.659.535-.013 1.317.829 2.545.572 3.886 0 .05-.04.09-.084.113-.441.218-.833.508-1.171.867-1.048 1.115-1.117 2.521-2.028 3.78-.854 1.192.065 3.852-1.984 3.868-.787.005-3.407 1.514-3.813 3.236-.48 2.044-1.597 3.865-3.203 5.217-1.18.992-2.785 2.287-4.997 4.01-1.053.819-5.306 5.41-8.972 6.269-.505.117-1.03-.076-1.337-.491-.019-.024-.036-.051-.052-.078-2.411-3.744-2.916-8.239-4.813-12.183-2.24-4.676-8.301-5.912-9.989-11.09-1.425-4.373-2.024-6.215-4.02-7.342-1.393-.787-2.555-1.883-3.415-3.232-1.4-2.197-3.527-5.321-5.273-7-.792-.765-1.316-1.755-1.499-2.842-.082-.487-.801-.451-.829.046-.1 1.74.222 2.285-.263 2.655-.408.308-.91.14-1.266-.229-1.246-1.285-3.285-3.62-3.798-4.926-.002.006-.002.013-.004.019-.132.507-.034 1.049.267 1.477 2.697 3.842 15.845 22.826 16.178 24.622 2.19 11.948 11.44 14.81 16.16 19.213.886.829 1.471 1.9 1.699 3.053.219 1.1.744 2.053 1.568 2.812.871.806 1.742.696 6.673.08.819-.106 1.35-.69 1.916-1.214.484-.45 4.487-1.864 5.01-2.194 1.08-.7-.263-.286 2.219-1.464.972-.47 2.113-3.394 1.921-.076-.042.855.436 1.627.346 2.487-.515 5.04-.936 5.875-1.225 6.848-.383 1.287-.892 2.531-1.213 3.842-1.511 6.176-3.901 12.762-8.06 17.633-.088.104-.181.199-.282.294-2.297 2.127-6.489 6.06-9.901 12.745-2.147 4.208-5.188 7.862-7.431 12-.754 1.405-.943 1.756-.272 3.647.476 1.349 1.901 7.586 2.121 15.582.238 8.717-1.167 10.149-3.958 12.172-4.47 3.237-7.519 5.444-9.612 6.993-2.453 1.811-3.919 4.667-3.955 7.716-.014 1.122-.278 2.537-1.045 4.242.003.004.005.008.008.014.161.305-5.763 3.269-7.804 5.68-.002.002-.003.002-.003.004 0 .059-.004.119.015.177 1.377 4.316-16.08 16.837-19.716 16.808-2.624-.019-9.06 1.01-12.135 2.319-2.068.882-7.662-1.017-8.07-2.207-.062-.181-.081-.506.064-.626 1.369-1.134-3.249-7.807-4.35-8.567-.708-.489-2.05-3.605-2.599-4.383-1.683-2.383 1.213-5.74-.668-8.114-.101-.125-.2-.258-.293-.388l-5.441-7.6c-.846-1.182-3.251-2.579-3.262-4.03 0-.002 0-.006 0-.008-.015-1.585 2.816-9.229 3.042-9.551.26-.374.503-.778.708-1.183.116-.227.33-.392.75-.611 1.38-.706 3.357-2.45 1.096-6.146-.132-.223-.132.751-.85-4.373-.47-3.368-4.895-10.994-5.647-11.794 0 0-5.131-2.45-7.484-7.278.12-.277.302-.514.536-.704 2.17-1.737 1.782-3.915 2.42-8.601.032-.233.073-.472.123-.702.002-.014.005-.024.007-.036l.065-.311c.003-.012.005-.022.008-.032 0-.004 0-.006.002-.008.193-.923.439-2.158-.824-4.067-.22-.334-.608-.517-1.01-.478-.02.002-.041.004-.061.006-.692.059-1.304-.448-1.374-1.14-.002 0-.003-.019-.004-.024 0-.012-.007-.017-.015-.02-1.016-.414-2.14-.47-3.19-.163-2.316.677-7.23 1.685-7.782-1.5-.743-4.276-3.664-5.209-5.1-5.113-6.109.43-11.279 5.678-17.587 5.252-.282-.014-.638-.151-.903-.25-5.446-2.055-11.323-2.097-16.86-3.161-1.879-.36-4.585-1.274-5.949-2.615l-7.76-7.63c-.505-.495-.953-1.043-1.34-1.635-2.461-3.783-3.378-12.11-4.03-13.598-.097-.217-.203-.436-.314-.645l-.668-1.261c-.008-.016-.017-.026-.025-.042 0 0 0 0-.002-.002-1.808-2.363-2.371-5.461-1.514-8.31l3.067-10.194c.045-.15.089-.308.127-.46.08-.325.146-.658.191-.985.729-5.065-.239-6.914-.714-7.822-.883-1.693-.883-1.693 3.495-7.793 7.97-11.11 9.338-11.67 10.928-12.31 0 0 0 0 0 .004.007 0 .011 0 .016 0 3.467.393 10.03-3.834 9.908-6.128-.035-.736-.119-2.266 1.175-4.308.501-.787 1.135-1.498 1.858-2.085l7.165-5.821c1.322-1.075 3.186-1.168 4.61-.228.968-.34 2.03-.298 2.969.117 1.226.54 2.01.164 2.394-.016 4.34-2.082 9.07-2.718 31.07-4.12.745-.048 1.464.276 1.921.865.004.005.008.011.013.016 1.296 1.675.328 1.46 1.798 3.934.559.941 0 1.654-1.75 3.428-.667.673-.558 1.747-.341 1.782.603.03 2.033.406 3.214 1.023 1.557.814 4.02 1.617 6.071 2.209 1.86.537 3.517 1.621 4.757 3.107.806.971 11.695 7.474 11.254-1.369-.03-.617.575-1.689 1.588-2.517 3.538-2.88 6.134.847 7.105 1.067 1.561.357 1.761.355 2.81.334.009 0 .019 0 .027 0 .004 0 0 0 .016 0 .971.017 1.418 1.13 4.524.919 5.374-.363 10.797.484 16.15-.462.599-.107 1.436-.303 1.906-.69 5.936-4.905-.083-10.907.839-16.314.003-.016-.002-.031-.014-.044-.011-.012-.026-.018-.042-.017 0 0-.002 0-.002 0-1.832.144-3.572.871-4.964 2.068-.501.43-1.114.74-1.956.827-1.483.15-2.64-.815-3.931-1.304-.65-.247-1.376.079-1.625.727 0 .005-.003.009-.005.014-.499 1.208-6.16.319-7.852-2.516-.514-.861-1.288-1.528-2.218-1.905 0 0-.004-.002-.006-.003.02-.018.041-.037.061-.056 1.669-1.573-.883-2.784-1.163-4.01-.14-.61.181-1.228.759-1.465 0-.005.021-.009.033-.014 1.388-.526 2.02-1.278 1.74-1.075-.59.434-1.285.686-2.02.728-.002 0-.003 0-.005 0-.388.021-.77-.066-1.106-.252-.821-.456-1.75-.695-2.69-.695-1.127 0-2.271.324-2.502 1.441-.043.208-.162.39-.335.513 0 0 0 0-.002 0-.144.102-.332.121-.493.05-.286-.134-.567-.1-.787.05-.233.159-.362.415-.332.766.086.971 2.709 1.968.585 2.949h-.015c0 0-.916.534-.994.573-.875.435-2.01-.529-2.775-.575-.247-.014-.485.09-.738.085-.006 0-.014 0-.02 0-.149-.002-.241-.061-.275-.09-.004-.004-.007-.006-.011-.009-.075-.064-.896-.794-1.026-1.02-.321-.546-.352-.6-.524-.782-.136-.142-.377-.323-.566-.457-.416-.294-.677-.757-.714-1.265 0 0 0 0 0-.002-.029-.394-.076-.949-.148-1.556-.162-1.361-.849-2.602-1.915-3.462-.276-.222-.621-.337-.972-.322-.223 0-.45-.051-.643-.181-.899-.598-1.497-.726-1.497-.726-.003-.002-.006-.004-.009-.006l-7.03-5.126c-.403-.293-.892-.436-1.389-.405-.412.026-.635-.362-.862-.706-.452-.689-1.303-1-2.094-.764-.033 0-.065.02-.097.033-.498.189-.729.786-.462 1.272.149.266.31.526.482.775l4.088 5.95c.679.985 1.804 1.569 2.999 1.556.488-.003.901.364.952.85.024.235.159.453.378.58 1.949 1.121 4.471 1.284 5.825 3.406.014.02.023.044.026.069.002.007.003.014.003.019 0 .005 0 .005 0 .009.007.159-.097.668-.182.821-.142.265-.662.382-.815.243-.109-.098-.101-.331-.09-.581.004-.078-.018-.175-.055-.278-.203-.567-.627-.682-1.176-.917-.751-.318-1.619.016-1.962.756-.003.008-.007.015 0 .022-.011.02-.02.043-.027.064-.326.843.217 1.098.507 1.241.456.215 1.149.546.96 1.532-.077.417-.537.268-.779.448 0 0 .155-.144-.66 1.491-.286.556-.02.687-.74 1.056-.607.296-.893-.095-.967-.221-.263-.448.101-.849.089-1.28-.008-.195-.013-.365.55-.599.804-.339-.047-1.657-.528-2.404-.005-.008 0-.017-.015-.024-.987-1.706-.336-.324-1.472-1.386-.701-.656-2.54-1.754-2.901-2.203-2.414-2.99-6.371-4.408-8.446-7.744-.42-.676-1.031-1.214-1.754-1.545-.473-.217-1.036-.372-1.659-.343-.599.028-3.449 1.655-5.737 2.96-2.157 1.234-3.715-1.68-5.815-.845-2.269.902-.928 3.868-2.85 4.969-2.188 1.251-4.804 1.665-6.734 3.43-.078.071-.137.179-.186.293-.591 1.359-1.623 1.95-1.693 2.288-.06.281-.084.401.036.792.256.819 0 1.713-.651 2.272 0 0-.003.002-.004.003-.422.373-.069 1.547-.454 1.757-.715.369-1.488-.035-2.215.173-1.094.309-1.149 1.727-2.222 2.056-1.401.422-2.756-.461-4.153-.154-3.153.687-3.153.687-3.272.974-.111.258-.364.69-.81.687-1.637-.035-1.032-2.084-1.807-2.97-.836-.962-1.069-.857-1.447-.697-.51.221-1.365.592-1.629.439-.351-.216-.628-.54-1.037-.659-.28-.081-.514-.273-.647-.532-.234-.462.35-2.329.483-2.866.081-.323.059-.664-.06-.975-.141-.366-.487-.611-.879-.62-.075 0-.147-.034-.198-.09-.457-.504 1.422-2.407 1.944-3.378.081-.15.167-.368.229-.527 1.608-4.113 1.605-5.508 1.275-6.881-.146-.607.294-1.195.917-1.231.345-.018.704-.034 1-.047.667-.778 1.779-.997 2.69-.534 1.241.63 3.717 1.528 7.946 1.726 1.024.049 2.05.264 3.01.629.895.341 1.657-.442 1.991-.869.788-1.01.668-2.257.827-3.434.083-.621.431-1.176.954-1.522.139-.093.209-.26.18-.425-.041-.222-.222-1.994-.439-2.01 0 0-.02-.002-.028-.003-1.75-.189-1.193-2.438-2.342-3.166-.971-.617-.93-1.038-3.35-1.301-.349-.036.476-1.717 1.881-2.166.081-.026.169-.019.246.019.864.436 1.829.64 2.795.593.365-.017.704-.201.917-.498.215-.296.283-.674.184-1.027 0-.007-.003-.013-.005-.018-.103-.367.217-.931.629-.66.804.528 1.208.869 2.609.667.345-.05.627-.307.706-.648.038-.162.142-.301.287-.383 1.573-.891 2.24-1.287 2.552-1.648.747-.862 1.623-1.58 2.621-2.134 1.423-.794 2.116-1.31 3.476-2.541.584-.528 1.283-.897 2.051-1.077.235-.055.387-.281.351-.518-.007-.045.005-.092.033-.128.256-.338.645-.553 1.07-.593.991-.093 1.583-.093 1.998-.093.004-.004.008-.009.011-.014.286-.329.705-.514 1.142-.501 1.04.03 2.404.508 2.184-2.339-.327-2.561.526-5.141 2.312-7.01.003-.003.006-.006.009-.009.806.341.627 1.163.763 2.031.083.52-.076 1.05-.428 1.439-.007.005-.011.012-.017.018-3.411 3.783.961 3.66 1.079 4.632 0 .005 0 .011.003.017.016.163.106.31.246.398.14.086.31.105.465.05.149-.053 3.518-1.459 3.651-1.375.638.4.153.607.664 1.074.004.004.008.008.014.013.763.702 1.884.847 2.801.36 1.936-1.029 4.165-1.37 6.321-.973 1.062.195 3.685-2.348 3.2-3.767 0 0 0 0 0-.002-.296-.864-.346-1.795-.148-2.687.124-.558-.104-.864.535-1.285.32-.212.727-.245 1.078-.087.451.204.976.216 1.445.016.621-.264 1.044-.854 1.092-1.529 0-.004 0-.008 0-.012.012-.135-.056-.266-.171-.338-.581-.363-.908-1.037-.819-1.73.098-.769.683-1.385 1.447-1.522 2.231-.409 2.635.846 4.755-1.043.128-.114.182-.289.139-.454-.045-.166-.177-.293-.344-.329 0 0 0 0-.002 0-1.755-.382-3.585-.265-5.28.328l-2.046.717c-.004 0-.005.002 0 .003-.002 0-.005.003-.008.004-.002 0-.003.002-.005.003-.345.224-.755.328-1.165.295-1.426-.115-2.326-1.467-2.883-2.962-.648-1.734-.427-3.681.586-5.228.504-.768.754-1.752 1.317-2.47.232-.294.318-.678.235-1.043-.232-1.028-2.02-1.486-3.01-1.266-1.985.445-.655 2.821-1.451 4.064-.457.717-2.373 1.226-2.539 2.201-.417 2.501-.637 3.817-.469 4.685.361 1.863.178 3.771-.542 5.527-.005.012 0 .022-.014.034-.57 1.495.597 3.058-.181 4.544-.909 1.728-3.02.36-3.507 2.445-.201.879-1.922-.416-2.511-1-.061-1.717-.722-2.507-1.204-3.85-.389-1.087-1.274-1.924-2.381-2.254-2.943-.877-3.54 2-6.142 1.199-2.095-.645-3.564-2.534-3.675-4.724s1.16-4.217 3.18-5.07c0 0 .002 0 .003 0 6.881-2.892 8.161-5.321 8.62-6.952.103-.368.389-.656.757-.762.003 0 .006-.002.012-.003 0 0 .002 0 .002-.003.074-.371.263-.709.542-.966.706-.655 1.185-1.53 1.818-2.253.694-.793 1.409-2.02 1.409-2.02 0 0 3.567-3.488 7.327-4.681 1.743-.546 3.02-.524 3.435-.44.435.088 1.078.212 2.091.408-.054.34.033.687.239.962.478.635 2.041.479 3.923 1.35 2.182 1.01 4.8.708 7.156 1.199.958.201 1.608 1.097 1.495 2.071-.114.973-.951 1.699-1.93 1.673-.68-.018-1.293.4-1.525 1.038-.231.638-.028 1.352.503 1.775.841.665 1.8 1.192 2.81 1.549 1.187.418 3.111.723 2.272-.205-.3-.332-.724-.522-1.169-.525-1.631-.007-1.118-1.502-.238-1.103.971.44 3.682.731 1.8-1.082-.232-.224-.256-.586-.056-.839.312-.395.565-.836.75-1.304.389-.996.315-.676 1.592-.288.22.067.448.024.624-.099.359-.251.841-.446.49-.712-.298-.227.313-.75.531-.675.369.126.779.008 1.023-.298.191-.239.249-.553.168-.839-.216-.731.383-2.714 1.43-3.099.254-.094.531-.102.79-.023 0 0 .002-.002.002-.003.217-.201.474-.358.75-.46.468-.172 1.266-.515 1.829-1 .576-.499 1.358-.689 2.099-.511.007.002.016 0 .02-.006.231-.254.222-.647-.02-.89-.439-.441-1.938-1.205-1.717-1.786.072-.188 1-.415 1.127-1.208.086-.545-.217-1.076-.73-1.278-15.502-6.087-32.18-9.816-49.61-10.769-3.209 1.984-6.42 4.2-9.311 6.594-10.55 8.743-27.22 12.361-26.84 11.39-1.592.02-2.01-.412-2.01-.412-.519.133-.981.428-1.414.123-.004-.002-.008-.005-.011-.007.018-.208-.078-.408-.249-.524-.557-.376-1.648.507-4.289 1.848 0 .005-.02 0-.029.015-.049.025-.099.05-.146.076-1.114.591-2.363.73-3.208.745-.609 0-1.201.126-1.768.351-.087.034-.184.002-.232-.077-.193-.314.772-.664 1.117-.796.316-.122.167-.478-1.154.278-.285.162-.623.208-.943.126-1.323-.339-2.912.721-3.96 1.596-.163.137-.375.215-.627.108-.366-.155-.689-.1-.581.466.124.609-3.365 2.153-3.426 1.89-.068-.19-.266-.301-.463-.259-.457.097-1.01.468-1.315 1.044-.559 1.055-2.074 1.233-2.816 1.85-.765.635-1.901 1.268-1.901 1.268-.417.483-.701.753-1.145.771-.435.018-.688-.745-.496-1.036.117-.177.953-.999.751-1.043-.083-.017-.154-.07-.193-.145-.143-.273.512-.561.344-.895-.113-.223-1.375-.298-1.474-.412-.074-.083-.09-.202-.041-.303.784-1.595.886-1.696 1.952-2.75-.004-.006-.009-.011-.012-.017-.112-.165-.112-.383.002-.548.596-.869 2.571-3.466 4.874-3.781.611-.087.217-.214.217-.214-.576-.225-1.31-.389-.89-.844.818-.89 2.071-2.075 3.471-2.771.671-.334 1.299-.741 1.877-1.218.572-.472 2.496-1.309 4.578-1.402.003 0 .006 0 .009 0 1.736-.112 6.328-3.239 6.365-3.282-.002 0-.003-.003-.005-.004-.142-.135.073-.601.029-.841-.018-.099.031-.199.12-.246.451-.238.974-.326 1.44-.531.063-.027.106-.083.117-.151.024-.176-.177-.29-.343-.228-.95.354-1.35.5-1.571.566-.121.036-.25-.017-.31-.127-.06-.11-.035-.248.06-.329 1.09-.942 2.559-.956 3.854-1.404.563-.195.567-1.393-.611-1.199-5.796.954-11.06 2.679-16.562 4.497 0 .004.003.008.004.012.039.163-1.109.712-1.25.852-.072.071-.1.176-.072.273 0 .007.003.013.005.019.07.007.092.093.039.133-.218.164-.632-.004-.756.231-.148.281.377.171.476.366.075.147.049.324-.065.442 0 0-.002 0-.002.003-.172.175-1.03.552-1.161.394-.119-.148-.143-.277-.313-.168-.615.396-1 .633-1.355.695-1.24.216-2.814.879-2.814.879.186-.159.774-.715.873-.924.338-.684.706-.898 1.117-1.01.296-.077.343-.494-.987 0-1.197.452-2.304 1.148-3.234 2.026-.784.737-1.706 1.537-2.37 1.882.126-.215.033-.269-.057-.223-.077.04-.708.611-.959.543-.794-.214.242-.665.242-1.453.083-.132.188-.237.303-.334-.002 0-.004 0-.005.002-.904.384-1.719.965-2.383 1.688-.536.584-.974 1.281-1.55.712-.274-.268-.689-.346-1.043-.181-2.209 1.032-4.389 2.117-6.541 3.245-.227.119-.443.263-.64.429-.149.125-.248.302-.274.494-.033.23-.425.734-.57.978-.065.11-.062.247.005.354.198.304.855.082 1.201-.032.493-.162 1.032.04 1.299.484.26.435.192.988-.16 1.349-.293.3-.577.631-.829.966-.529.705-1.024 1.445-1.783 1.922-.463.292-.905.625-1.312.99-4.147 3.718-4.283 10.485-7.334 11.848-.007.003-.015.007-.02.009-2.34 1.039-3.156.142-5.961 1.187-.546.204-1.056.056-1.57-.081-.436-.117-.79-.433-.957-.852 0 0 0 0 0-.002-.616-1.561-2.379-2.329-3.942-1.716-.262.103-.538.149-.844.067-.006-.002-.011-.005-.015-.009-.002-.002-.005-.004-.008-.006-.513.148-3.797 1.195-3.564 1.658.002.003 5.783-1.765 4.483 1.359-.002 0-.006.002-.009.003-.217.062-.393.215-.489.418-.14.295-.31.464-.791.574-.551.127-1.134-.029-1.55-.413-.004-.004-.009-.005-.013-.005-.294.05-.423.778-.305.978.152.259.917.257.125.744-.465.285-1.092.437-1.302.945-.247.599-.551 1.173-.912 1.711-.376.564.443.743-.196 1.26-.762.617-3.388.022-4.305.194-.002 0-1.581.153-2.53.486-.95.333-2.663.76-3.608 1.901-1.626 1.966-1.484 2.379-3.385 1.85-.108-.03-.222 0-.301.083-19.366 20.549-33.35 46.22-39.721 74.76-.004.023-.011.049-.017.072-.42 1.819-.899 4.045-1.601 8.216-.016.098-.015.197.006.294.096.465.187.587.782.587 1.408 0 2.613.996 2.872 2.38.066.398.305.677.626.807.314.128.669.103 1-.133.215-.151 1.415.895 1.492 2.174.042.69.307 1.482.442 2.162.163.822-.052 1.674-.588 2.319-.083.101-.112.234-.081.36.676 2.631 3.723 13.837 4.353 14.418.364-.068.662.051.862.278 6.16 6.944 13.11 18.28 12.913 21.831-1.389 2.604-1.239 2.469-.088 3.88 2.146 2.636 2.108 2.761 1.295 5.471l.002-.002c.474-.77 1.316-1.236 2.22-1.236.905.002 1.744.47 2.218 1.24.353.573.709 1.142 1.189 1.572 1.269 1.138 1.924 2.811 1.768 4.508 0 .004 1.952.019 4.657 2.053 3.425 2.575 15.521 16.427 15.996 20.221.212 1.691-.481 3.349-1.348 4.816-.999 1.687-4.226 5.198-4.775 7.088-.271.939-1.776 1.365-1.765 1.924.016.766.25 2.367 1.355 5.523.328.933 1.089 7.85.713 10.642-.222 1.633-.218 1.924.183 3.722.13.561-1.277 2.165-2.248 1.472-1.217-.87-2.23-.74-2.357-.485 0 .002 0 .002-.002.004-1.679 2.753-7.719 3.243-6.375 6.174.398.867.8 1.731 1.146 2.611.408 1.037.632 2.15.667 3.261.012.48 1.681 4 3.01 5.397 29.15 30.481 70.21 49.47 115.71 49.47 88.42-.006 160.09-71.68 160.09-160.09m-183.75-102.02c.665-.288 1.284-.686 1.989-.877.006-.002.016-.004.02-.006.971-.266 1.819-.003 2.112-.371.285-.364.775-1.025 1-1.555.11-.263-.169-.635.181-.824.389-.214.048-.625.15-.925.269-.8.449-.821.766-.866.308-.045.595-.083.702-.249.503-.743-1.275-2.878-2.385-2.592-1.154.297-2.083 1.981-2.47 1.957-.489-.026-.713-.042-1.041.216-.253.195-.285.518-.473.751-.219.284-.512.506-.737.787-.188.231-.257.435.007.674.195.171.303.267-.271 1.01-.475.611-1.258.935-1.588 1.686-.117.273-.101.815-.062 1.031.148.784 1.364.469 2.096.153"/></svg>